{"glyphs":{"0":{"ha":1042,"x_min":0,"x_max":868,"o":"m 174 0 l 694 0 l 694 174 l 174 174 l 174 0 m 0 174 l 174 174 l 174 1042 l 0 1042 l 0 174 m 694 174 l 868 174 l 868 1042 l 694 1042 l 694 174 m 174 1042 l 694 1042 l 694 1215 l 174 1215 l 174 1042 "},"1":{"ha":694,"x_min":0,"x_max":521,"o":"m 0 0 l 521 0 l 521 174 l 347 174 l 347 1215 l 0 1215 l 0 1042 l 174 1042 l 174 174 l 0 174 l 0 0 "},"2":{"ha":1042,"x_min":0,"x_max":868,"o":"m 0 0 l 868 0 l 868 174 l 174 174 l 174 521 l 0 521 l 0 0 m 174 521 l 694 521 l 694 694 l 174 694 l 174 521 m 694 694 l 868 694 l 868 1042 l 694 1042 l 694 694 m 0 1042 l 694 1042 l 694 1215 l 0 1215 l 0 1042 "},"3":{"ha":1042,"x_min":0,"x_max":868,"o":"m 0 0 l 694 0 l 694 174 l 0 174 l 0 0 m 694 174 l 868 174 l 868 1042 l 694 1042 l 694 694 l 0 694 l 0 521 l 694 521 l 694 174 m 0 1042 l 694 1042 l 694 1215 l 0 1215 l 0 1042 "},"4":{"ha":1042,"x_min":0,"x_max":868,"o":"m 694 0 l 868 0 l 868 1215 l 694 1215 l 694 694 l 174 694 l 174 1215 l 0 1215 l 0 521 l 694 521 l 694 0 "},"5":{"ha":1042,"x_min":0,"x_max":868,"o":"m 174 0 l 694 0 l 694 174 l 174 174 l 174 0 m 0 174 l 174 174 l 174 347 l 0 347 l 0 174 m 694 174 l 868 174 l 868 521 l 694 521 l 694 174 m 174 521 l 694 521 l 694 694 l 174 694 l 174 521 m 0 694 l 174 694 l 174 1042 l 868 1042 l 868 1215 l 0 1215 l 0 694 "},"6":{"ha":1042,"x_min":0,"x_max":868,"o":"m 174 0 l 694 0 l 694 174 l 174 174 l 174 0 m 694 174 l 868 174 l 868 521 l 694 521 l 694 174 m 0 174 l 174 174 l 174 521 l 694 521 l 694 694 l 174 694 l 174 1042 l 0 1042 l 0 174 m 694 868 l 868 868 l 868 1042 l 694 1042 l 694 868 m 174 1042 l 694 1042 l 694 1215 l 174 1215 l 174 1042 "},"7":{"ha":1042,"x_min":0,"x_max":868,"o":"m 347 0 l 521 0 l 521 521 l 347 521 l 347 0 m 521 521 l 694 521 l 694 694 l 521 694 l 521 521 m 694 694 l 868 694 l 868 1215 l 0 1215 l 0 1042 l 694 1042 l 694 694 "},"8":{"ha":1042,"x_min":0,"x_max":868,"o":"m 174 0 l 694 0 l 694 174 l 174 174 l 174 0 m 0 174 l 174 174 l 174 521 l 0 521 l 0 174 m 694 174 l 868 174 l 868 521 l 694 521 l 694 174 m 174 521 l 694 521 l 694 694 l 174 694 l 174 521 m 0 694 l 174 694 l 174 1042 l 0 1042 l 0 694 m 694 694 l 868 694 l 868 1042 l 694 1042 l 694 694 m 174 1042 l 694 1042 l 694 1215 l 174 1215 l 174 1042 "},"9":{"ha":1042,"x_min":0,"x_max":868,"o":"m 174 0 l 694 0 l 694 174 l 174 174 l 174 0 m 0 174 l 174 174 l 174 347 l 0 347 l 0 174 m 0 694 l 174 694 l 174 1042 l 0 1042 l 0 694 m 694 174 l 868 174 l 868 1042 l 694 1042 l 694 694 l 174 694 l 174 521 l 694 521 l 694 174 m 174 1042 l 694 1042 l 694 1215 l 174 1215 l 174 1042 "}," ":{"ha":347,"x_min":0,"x_max":0,"o":""},"!":{"ha":347,"x_min":0,"x_max":174,"o":"m 0 0 l 174 0 l 174 174 l 0 174 l 0 0 m 0 347 l 174 347 l 174 1215 l 0 1215 l 0 347 "},"\"":{"ha":694,"x_min":0,"x_max":521,"o":"m 0 868 l 174 868 l 174 1215 l 0 1215 l 0 868 m 347 868 l 521 868 l 521 1215 l 347 1215 l 347 868 "},"#":{"ha":1042,"x_min":0,"x_max":868,"o":"m 521 521 l 347 521 l 347 694 l 521 694 l 521 521 m 174 0 l 347 0 l 347 347 l 521 347 l 521 0 l 694 0 l 694 347 l 868 347 l 868 521 l 694 521 l 694 694 l 868 694 l 868 868 l 694 868 l 694 1215 l 521 1215 l 521 868 l 347 868 l 347 1215 l 174 1215 l 174 868 l 0 868 l 0 694 l 174 694 l 174 521 l 0 521 l 0 347 l 174 347 l 174 0 "},"$":{"ha":1042,"x_min":0,"x_max":868,"o":"m 694 174 l 868 174 l 868 521 l 694 521 l 694 174 m 0 694 l 174 694 l 174 1042 l 0 1042 l 0 694 m 347 -174 l 521 -174 l 521 0 l 694 0 l 694 174 l 521 174 l 521 521 l 694 521 l 694 694 l 521 694 l 521 1042 l 868 1042 l 868 1215 l 521 1215 l 521 1389 l 347 1389 l 347 1215 l 174 1215 l 174 1042 l 347 1042 l 347 694 l 174 694 l 174 521 l 347 521 l 347 174 l 0 174 l 0 0 l 347 0 l 347 -174 "},"%":{"ha":1042,"x_min":0,"x_max":868,"o":"m 0 0 l 174 0 l 174 347 l 0 347 l 0 0 m 521 0 l 868 0 l 868 347 l 521 347 l 521 0 m 174 347 l 347 347 l 347 521 l 174 521 l 174 347 m 347 521 l 521 521 l 521 694 l 347 694 l 347 521 m 521 694 l 694 694 l 694 868 l 521 868 l 521 694 m 0 868 l 347 868 l 347 1215 l 0 1215 l 0 868 m 694 868 l 868 868 l 868 1215 l 694 1215 l 694 868 "},"&":{"ha":1215,"x_min":0,"x_max":1042,"o":"m 174 0 l 694 0 l 694 174 l 174 174 l 174 0 m 868 0 l 1042 0 l 1042 174 l 868 174 l 868 0 m 694 174 l 868 174 l 868 347 l 694 347 l 694 174 m 0 174 l 174 174 l 174 521 l 0 521 l 0 174 m 868 347 l 1042 347 l 1042 521 l 868 521 l 868 347 m 521 347 l 694 347 l 694 694 l 347 694 l 347 1042 l 174 1042 l 174 521 l 521 521 l 521 347 m 694 694 l 868 694 l 868 1042 l 694 1042 l 694 694 m 347 1042 l 694 1042 l 694 1215 l 347 1215 l 347 1042 "},"'":{"ha":347,"x_min":0,"x_max":174,"o":"m 0 868 l 174 868 l 174 1215 l 0 1215 l 0 868 "},"(":{"ha":521,"x_min":0,"x_max":347,"o":"m 174 0 l 347 0 l 347 174 l 174 174 l 174 0 m 0 174 l 174 174 l 174 1042 l 0 1042 l 0 174 m 174 1042 l 347 1042 l 347 1215 l 174 1215 l 174 1042 "},")":{"ha":521,"x_min":0,"x_max":347,"o":"m 0 0 l 174 0 l 174 174 l 0 174 l 0 0 m 174 174 l 347 174 l 347 1042 l 174 1042 l 174 174 m 0 1042 l 174 1042 l 174 1215 l 0 1215 l 0 1042 "},"*":{"ha":868,"x_min":174,"x_max":694,"o":"m 174 347 l 347 347 l 347 521 l 174 521 l 174 347 m 521 347 l 694 347 l 694 521 l 521 521 l 521 347 m 347 521 l 521 521 l 521 694 l 347 694 l 347 521 m 174 694 l 347 694 l 347 868 l 174 868 l 174 694 m 521 694 l 694 694 l 694 868 l 521 868 l 521 694 "},"+":{"ha":1042,"x_min":0,"x_max":868,"o":"m 347 174 l 521 174 l 521 521 l 868 521 l 868 694 l 521 694 l 521 1042 l 347 1042 l 347 694 l 0 694 l 0 521 l 347 521 l 347 174 "},",":{"ha":347,"x_min":0,"x_max":174,"o":"m 0 -174 l 174 -174 l 174 174 l 0 174 l 0 -174 "},"-":{"ha":1042,"x_min":0,"x_max":868,"o":"m 0 521 l 868 521 l 868 694 l 0 694 l 0 521 "},".":{"ha":347,"x_min":0,"x_max":174,"o":"m 0 0 l 174 0 l 174 174 l 0 174 l 0 0 "},"/":{"ha":1042,"x_min":0,"x_max":868,"o":"m 0 0 l 174 0 l 174 347 l 0 347 l 0 0 m 174 347 l 347 347 l 347 521 l 174 521 l 174 347 m 347 521 l 521 521 l 521 694 l 347 694 l 347 521 m 521 694 l 694 694 l 694 868 l 521 868 l 521 694 m 694 868 l 868 868 l 868 1215 l 694 1215 l 694 868 "},":":{"ha":347,"x_min":0,"x_max":174,"o":"m 0 0 l 174 0 l 174 174 l 0 174 l 0 0 m 0 694 l 174 694 l 174 868 l 0 868 l 0 694 "},";":{"ha":347,"x_min":0,"x_max":174,"o":"m 0 -174 l 174 -174 l 174 174 l 0 174 l 0 -174 m 0 694 l 174 694 l 174 868 l 0 868 l 0 694 "},"<":{"ha":868,"x_min":0,"x_max":694,"o":"m 521 0 l 694 0 l 694 174 l 521 174 l 521 0 m 347 174 l 521 174 l 521 347 l 347 347 l 347 174 m 174 347 l 347 347 l 347 521 l 174 521 l 174 347 m 0 521 l 174 521 l 174 694 l 0 694 l 0 521 m 174 694 l 347 694 l 347 868 l 174 868 l 174 694 m 347 868 l 521 868 l 521 1042 l 347 1042 l 347 868 m 521 1042 l 694 1042 l 694 1215 l 521 1215 l 521 1042 "},"=":{"ha":1042,"x_min":0,"x_max":868,"o":"m 0 347 l 868 347 l 868 521 l 0 521 l 0 347 m 0 694 l 868 694 l 868 868 l 0 868 l 0 694 "},">":{"ha":868,"x_min":0,"x_max":694,"o":"m 0 0 l 174 0 l 174 174 l 0 174 l 0 0 m 174 174 l 347 174 l 347 347 l 174 347 l 174 174 m 347 347 l 521 347 l 521 521 l 347 521 l 347 347 m 521 521 l 694 521 l 694 694 l 521 694 l 521 521 m 347 694 l 521 694 l 521 868 l 347 868 l 347 694 m 174 868 l 347 868 l 347 1042 l 174 1042 l 174 868 m 0 1042 l 174 1042 l 174 1215 l 0 1215 l 0 1042 "},"?":{"ha":1042,"x_min":0,"x_max":868,"o":"m 347 0 l 521 0 l 521 174 l 347 174 l 347 0 m 347 347 l 521 347 l 521 521 l 347 521 l 347 347 m 521 521 l 694 521 l 694 694 l 521 694 l 521 521 m 0 868 l 174 868 l 174 1042 l 0 1042 l 0 868 m 694 694 l 868 694 l 868 1042 l 694 1042 l 694 694 m 174 1042 l 694 1042 l 694 1215 l 174 1215 l 174 1042 "},"@":{"ha":1042,"x_min":0,"x_max":868,"o":"m 174 0 l 868 0 l 868 174 l 174 174 l 174 0 m 694 521 l 521 521 l 521 694 l 694 694 l 694 521 m 0 174 l 174 174 l 174 1042 l 0 1042 l 0 174 m 347 347 l 868 347 l 868 1042 l 694 1042 l 694 868 l 347 868 l 347 347 m 174 1042 l 694 1042 l 694 1215 l 174 1215 l 174 1042 "},"A":{"ha":1042,"x_min":0,"x_max":868,"o":"m 0 0 l 174 0 l 174 521 l 694 521 l 694 0 l 868 0 l 868 1042 l 694 1042 l 694 694 l 174 694 l 174 1042 l 0 1042 l 0 0 m 174 1042 l 694 1042 l 694 1215 l 174 1215 l 174 1042 "},"B":{"ha":1042,"x_min":0,"x_max":868,"o":"m 694 174 l 868 174 l 868 521 l 694 521 l 694 174 m 694 694 l 868 694 l 868 1042 l 694 1042 l 694 694 m 0 0 l 694 0 l 694 174 l 174 174 l 174 521 l 694 521 l 694 694 l 174 694 l 174 1042 l 694 1042 l 694 1215 l 0 1215 l 0 0 "},"C":{"ha":1042,"x_min":0,"x_max":868,"o":"m 174 0 l 868 0 l 868 174 l 174 174 l 174 0 m 0 174 l 174 174 l 174 1042 l 0 1042 l 0 174 m 174 1042 l 868 1042 l 868 1215 l 174 1215 l 174 1042 "},"D":{"ha":1042,"x_min":0,"x_max":868,"o":"m 694 174 l 868 174 l 868 1042 l 694 1042 l 694 174 m 0 0 l 694 0 l 694 174 l 174 174 l 174 1042 l 694 1042 l 694 1215 l 0 1215 l 0 0 "},"E":{"ha":1042,"x_min":0,"x_max":868,"o":"m 174 0 l 868 0 l 868 174 l 174 174 l 174 0 m 0 174 l 174 174 l 174 521 l 868 521 l 868 694 l 174 694 l 174 1042 l 0 1042 l 0 174 m 174 1042 l 868 1042 l 868 1215 l 174 1215 l 174 1042 "},"F":{"ha":1042,"x_min":0,"x_max":868,"o":"m 0 0 l 174 0 l 174 521 l 868 521 l 868 694 l 174 694 l 174 1042 l 0 1042 l 0 0 m 174 1042 l 868 1042 l 868 1215 l 174 1215 l 174 1042 "},"G":{"ha":1042,"x_min":0,"x_max":868,"o":"m 174 0 l 694 0 l 694 174 l 174 174 l 174 0 m 694 174 l 868 174 l 868 694 l 347 694 l 347 521 l 694 521 l 694 174 m 0 174 l 174 174 l 174 1042 l 0 1042 l 0 174 m 694 868 l 868 868 l 868 1042 l 694 1042 l 694 868 m 174 1042 l 694 1042 l 694 1215 l 174 1215 l 174 1042 "},"H":{"ha":1042,"x_min":0,"x_max":868,"o":"m 0 0 l 174 0 l 174 521 l 694 521 l 694 0 l 868 0 l 868 1215 l 694 1215 l 694 694 l 174 694 l 174 1215 l 0 1215 l 0 0 "},"I":{"ha":694,"x_min":0,"x_max":521,"o":"m 0 0 l 521 0 l 521 174 l 347 174 l 347 1042 l 521 1042 l 521 1215 l 0 1215 l 0 1042 l 174 1042 l 174 174 l 0 174 l 0 0 "},"J":{"ha":694,"x_min":0,"x_max":521,"o":"m 0 0 l 347 0 l 347 174 l 0 174 l 0 0 m 347 174 l 521 174 l 521 1215 l 0 1215 l 0 1042 l 347 1042 l 347 174 "},"K":{"ha":1042,"x_min":0,"x_max":868,"o":"m 694 0 l 868 0 l 868 521 l 694 521 l 694 0 m 0 0 l 174 0 l 174 521 l 694 521 l 694 694 l 174 694 l 174 1215 l 0 1215 l 0 0 m 694 694 l 868 694 l 868 1215 l 694 1215 l 694 694 "},"L":{"ha":868,"x_min":0,"x_max":694,"o":"m 174 0 l 694 0 l 694 174 l 174 174 l 174 0 m 0 174 l 174 174 l 174 1215 l 0 1215 l 0 174 "},"M":{"ha":1389,"x_min":0,"x_max":1215,"o":"m 0 0 l 174 0 l 174 1042 l 0 1042 l 0 0 m 1042 0 l 1215 0 l 1215 1042 l 1042 1042 l 1042 0 m 521 0 l 694 0 l 694 1042 l 1042 1042 l 1042 1215 l 174 1215 l 174 1042 l 521 1042 l 521 0 "},"N":{"ha":1042,"x_min":0,"x_max":868,"o":"m 0 0 l 174 0 l 174 1042 l 0 1042 l 0 0 m 694 0 l 868 0 l 868 1042 l 694 1042 l 694 0 m 174 1042 l 694 1042 l 694 1215 l 174 1215 l 174 1042 "},"O":{"ha":1042,"x_min":0,"x_max":868,"o":"m 174 0 l 694 0 l 694 174 l 174 174 l 174 0 m 0 174 l 174 174 l 174 1042 l 0 1042 l 0 174 m 694 174 l 868 174 l 868 1042 l 694 1042 l 694 174 m 174 1042 l 694 1042 l 694 1215 l 174 1215 l 174 1042 "},"P":{"ha":1042,"x_min":0,"x_max":868,"o":"m 694 694 l 868 694 l 868 1042 l 694 1042 l 694 694 m 0 0 l 174 0 l 174 521 l 694 521 l 694 694 l 174 694 l 174 1042 l 694 1042 l 694 1215 l 0 1215 l 0 0 "},"Q":{"ha":1042,"x_min":0,"x_max":868,"o":"m 347 347 l 521 347 l 521 521 l 347 521 l 347 347 m 0 174 l 174 174 l 174 1042 l 0 1042 l 0 174 m 174 0 l 694 0 l 694 174 l 868 174 l 868 1042 l 694 1042 l 694 347 l 521 347 l 521 174 l 174 174 l 174 0 m 174 1042 l 694 1042 l 694 1215 l 174 1215 l 174 1042 "},"R":{"ha":1042,"x_min":0,"x_max":868,"o":"m 694 0 l 868 0 l 868 521 l 694 521 l 694 0 m 694 694 l 868 694 l 868 1042 l 694 1042 l 694 694 m 0 0 l 174 0 l 174 521 l 694 521 l 694 694 l 174 694 l 174 1042 l 694 1042 l 694 1215 l 0 1215 l 0 0 "},"S":{"ha":1042,"x_min":0,"x_max":868,"o":"m 0 0 l 694 0 l 694 174 l 0 174 l 0 0 m 694 174 l 868 174 l 868 521 l 694 521 l 694 174 m 174 521 l 694 521 l 694 694 l 174 694 l 174 521 m 0 694 l 174 694 l 174 1042 l 0 1042 l 0 694 m 174 1042 l 868 1042 l 868 1215 l 174 1215 l 174 1042 "},"T":{"ha":1042,"x_min":0,"x_max":868,"o":"m 347 0 l 521 0 l 521 1042 l 868 1042 l 868 1215 l 0 1215 l 0 1042 l 347 1042 l 347 0 "},"U":{"ha":1042,"x_min":0,"x_max":868,"o":"m 174 0 l 694 0 l 694 174 l 174 174 l 174 0 m 0 174 l 174 174 l 174 1215 l 0 1215 l 0 174 m 694 174 l 868 174 l 868 1215 l 694 1215 l 694 174 "},"V":{"ha":1042,"x_min":0,"x_max":868,"o":"m 347 0 l 521 0 l 521 174 l 347 174 l 347 0 m 174 174 l 347 174 l 347 347 l 174 347 l 174 174 m 521 174 l 694 174 l 694 347 l 521 347 l 521 174 m 0 347 l 174 347 l 174 1215 l 0 1215 l 0 347 m 694 347 l 868 347 l 868 1215 l 694 1215 l 694 347 "},"W":{"ha":1389,"x_min":0,"x_max":1215,"o":"m 174 0 l 521 0 l 521 174 l 174 174 l 174 0 m 694 0 l 1042 0 l 1042 174 l 694 174 l 694 0 m 0 174 l 174 174 l 174 1215 l 0 1215 l 0 174 m 521 174 l 694 174 l 694 1215 l 521 1215 l 521 174 m 1042 174 l 1215 174 l 1215 1215 l 1042 1215 l 1042 174 "},"X":{"ha":1042,"x_min":0,"x_max":868,"o":"m 0 0 l 174 0 l 174 521 l 0 521 l 0 0 m 694 0 l 868 0 l 868 521 l 694 521 l 694 0 m 174 521 l 694 521 l 694 694 l 174 694 l 174 521 m 0 694 l 174 694 l 174 1215 l 0 1215 l 0 694 m 694 694 l 868 694 l 868 1215 l 694 1215 l 694 694 "},"Y":{"ha":1042,"x_min":0,"x_max":868,"o":"m 347 0 l 521 0 l 521 521 l 694 521 l 694 694 l 174 694 l 174 521 l 347 521 l 347 0 m 0 694 l 174 694 l 174 1215 l 0 1215 l 0 694 m 694 694 l 868 694 l 868 1215 l 694 1215 l 694 694 "},"Z":{"ha":1042,"x_min":0,"x_max":868,"o":"m 0 0 l 868 0 l 868 174 l 174 174 l 174 347 l 0 347 l 0 0 m 174 347 l 347 347 l 347 521 l 174 521 l 174 347 m 347 521 l 521 521 l 521 694 l 347 694 l 347 521 m 521 694 l 694 694 l 694 868 l 521 868 l 521 694 m 694 868 l 868 868 l 868 1215 l 0 1215 l 0 1042 l 694 1042 l 694 868 "},"[":{"ha":521,"x_min":0,"x_max":347,"o":"m 0 0 l 347 0 l 347 174 l 174 174 l 174 1042 l 347 1042 l 347 1215 l 0 1215 l 0 0 "},"\\":{"ha":1042,"x_min":0,"x_max":868,"o":"m 694 0 l 868 0 l 868 347 l 694 347 l 694 0 m 521 347 l 694 347 l 694 521 l 521 521 l 521 347 m 347 521 l 521 521 l 521 694 l 347 694 l 347 521 m 174 694 l 347 694 l 347 868 l 174 868 l 174 694 m 0 868 l 174 868 l 174 1215 l 0 1215 l 0 868 "},"]":{"ha":521,"x_min":0,"x_max":347,"o":"m 0 0 l 347 0 l 347 1215 l 0 1215 l 0 1042 l 174 1042 l 174 174 l 0 174 l 0 0 "},"^":{"ha":1042,"x_min":0,"x_max":868,"o":"m 0 694 l 174 694 l 174 868 l 0 868 l 0 694 m 694 694 l 868 694 l 868 868 l 694 868 l 694 694 m 174 868 l 347 868 l 347 1042 l 174 1042 l 174 868 m 521 868 l 694 868 l 694 1042 l 521 1042 l 521 868 m 347 1042 l 521 1042 l 521 1215 l 347 1215 l 347 1042 "},"_":{"ha":1042,"x_min":0,"x_max":868,"o":"m 0 0 l 868 0 l 868 174 l 0 174 l 0 0 "},"`":{"ha":1042,"x_min":694,"x_max":868,"o":"m 694 868 l 868 868 l 868 1215 l 694 1215 l 694 868 "},"a":{"ha":1042,"x_min":0,"x_max":868,"o":"m 0 0 l 174 0 l 174 521 l 694 521 l 694 0 l 868 0 l 868 1042 l 694 1042 l 694 694 l 174 694 l 174 1042 l 0 1042 l 0 0 m 174 1042 l 694 1042 l 694 1215 l 174 1215 l 174 1042 "},"b":{"ha":1042,"x_min":0,"x_max":868,"o":"m 694 174 l 868 174 l 868 521 l 694 521 l 694 174 m 694 694 l 868 694 l 868 1042 l 694 1042 l 694 694 m 0 0 l 694 0 l 694 174 l 174 174 l 174 521 l 694 521 l 694 694 l 174 694 l 174 1042 l 694 1042 l 694 1215 l 0 1215 l 0 0 "},"c":{"ha":1042,"x_min":0,"x_max":868,"o":"m 174 0 l 868 0 l 868 174 l 174 174 l 174 0 m 0 174 l 174 174 l 174 1042 l 0 1042 l 0 174 m 174 1042 l 868 1042 l 868 1215 l 174 1215 l 174 1042 "},"d":{"ha":1042,"x_min":0,"x_max":868,"o":"m 694 174 l 868 174 l 868 1042 l 694 1042 l 694 174 m 0 0 l 694 0 l 694 174 l 174 174 l 174 1042 l 694 1042 l 694 1215 l 0 1215 l 0 0 "},"e":{"ha":1042,"x_min":0,"x_max":868,"o":"m 174 0 l 868 0 l 868 174 l 174 174 l 174 0 m 0 174 l 174 174 l 174 521 l 868 521 l 868 694 l 174 694 l 174 1042 l 0 1042 l 0 174 m 174 1042 l 868 1042 l 868 1215 l 174 1215 l 174 1042 "},"f":{"ha":1042,"x_min":0,"x_max":868,"o":"m 0 0 l 174 0 l 174 521 l 868 521 l 868 694 l 174 694 l 174 1042 l 0 1042 l 0 0 m 174 1042 l 868 1042 l 868 1215 l 174 1215 l 174 1042 "},"g":{"ha":1042,"x_min":0,"x_max":868,"o":"m 174 0 l 694 0 l 694 174 l 174 174 l 174 0 m 694 174 l 868 174 l 868 694 l 347 694 l 347 521 l 694 521 l 694 174 m 0 174 l 174 174 l 174 1042 l 0 1042 l 0 174 m 694 868 l 868 868 l 868 1042 l 694 1042 l 694 868 m 174 1042 l 694 1042 l 694 1215 l 174 1215 l 174 1042 "},"h":{"ha":1042,"x_min":0,"x_max":868,"o":"m 0 0 l 174 0 l 174 521 l 694 521 l 694 0 l 868 0 l 868 1215 l 694 1215 l 694 694 l 174 694 l 174 1215 l 0 1215 l 0 0 "},"i":{"ha":694,"x_min":0,"x_max":521,"o":"m 0 0 l 521 0 l 521 174 l 347 174 l 347 1042 l 521 1042 l 521 1215 l 0 1215 l 0 1042 l 174 1042 l 174 174 l 0 174 l 0 0 "},"j":{"ha":694,"x_min":0,"x_max":521,"o":"m 0 0 l 347 0 l 347 174 l 0 174 l 0 0 m 347 174 l 521 174 l 521 1215 l 0 1215 l 0 1042 l 347 1042 l 347 174 "},"k":{"ha":1042,"x_min":0,"x_max":868,"o":"m 694 0 l 868 0 l 868 521 l 694 521 l 694 0 m 0 0 l 174 0 l 174 521 l 694 521 l 694 694 l 174 694 l 174 1215 l 0 1215 l 0 0 m 694 694 l 868 694 l 868 1215 l 694 1215 l 694 694 "},"l":{"ha":868,"x_min":0,"x_max":694,"o":"m 174 0 l 694 0 l 694 174 l 174 174 l 174 0 m 0 174 l 174 174 l 174 1215 l 0 1215 l 0 174 "},"m":{"ha":1389,"x_min":0,"x_max":1215,"o":"m 0 0 l 174 0 l 174 1042 l 0 1042 l 0 0 m 1042 0 l 1215 0 l 1215 1042 l 1042 1042 l 1042 0 m 521 0 l 694 0 l 694 1042 l 1042 1042 l 1042 1215 l 174 1215 l 174 1042 l 521 1042 l 521 0 "},"n":{"ha":1042,"x_min":0,"x_max":868,"o":"m 0 0 l 174 0 l 174 1042 l 0 1042 l 0 0 m 694 0 l 868 0 l 868 1042 l 694 1042 l 694 0 m 174 1042 l 694 1042 l 694 1215 l 174 1215 l 174 1042 "},"o":{"ha":1042,"x_min":0,"x_max":868,"o":"m 174 0 l 694 0 l 694 174 l 174 174 l 174 0 m 0 174 l 174 174 l 174 1042 l 0 1042 l 0 174 m 694 174 l 868 174 l 868 1042 l 694 1042 l 694 174 m 174 1042 l 694 1042 l 694 1215 l 174 1215 l 174 1042 "},"p":{"ha":1042,"x_min":0,"x_max":868,"o":"m 694 694 l 868 694 l 868 1042 l 694 1042 l 694 694 m 0 0 l 174 0 l 174 521 l 694 521 l 694 694 l 174 694 l 174 1042 l 694 1042 l 694 1215 l 0 1215 l 0 0 "},"q":{"ha":1042,"x_min":0,"x_max":868,"o":"m 347 347 l 521 347 l 521 521 l 347 521 l 347 347 m 0 174 l 174 174 l 174 1042 l 0 1042 l 0 174 m 174 0 l 694 0 l 694 174 l 868 174 l 868 1042 l 694 1042 l 694 347 l 521 347 l 521 174 l 174 174 l 174 0 m 174 1042 l 694 1042 l 694 1215 l 174 1215 l 174 1042 "},"r":{"ha":1042,"x_min":0,"x_max":868,"o":"m 694 0 l 868 0 l 868 521 l 694 521 l 694 0 m 694 694 l 868 694 l 868 1042 l 694 1042 l 694 694 m 0 0 l 174 0 l 174 521 l 694 521 l 694 694 l 174 694 l 174 1042 l 694 1042 l 694 1215 l 0 1215 l 0 0 "},"s":{"ha":1042,"x_min":0,"x_max":868,"o":"m 0 0 l 694 0 l 694 174 l 0 174 l 0 0 m 694 174 l 868 174 l 868 521 l 694 521 l 694 174 m 174 521 l 694 521 l 694 694 l 174 694 l 174 521 m 0 694 l 174 694 l 174 1042 l 0 1042 l 0 694 m 174 1042 l 868 1042 l 868 1215 l 174 1215 l 174 1042 "},"t":{"ha":1042,"x_min":0,"x_max":868,"o":"m 347 0 l 521 0 l 521 1042 l 868 1042 l 868 1215 l 0 1215 l 0 1042 l 347 1042 l 347 0 "},"u":{"ha":1042,"x_min":0,"x_max":868,"o":"m 174 0 l 694 0 l 694 174 l 174 174 l 174 0 m 0 174 l 174 174 l 174 1215 l 0 1215 l 0 174 m 694 174 l 868 174 l 868 1215 l 694 1215 l 694 174 "},"v":{"ha":1042,"x_min":0,"x_max":868,"o":"m 347 0 l 521 0 l 521 174 l 347 174 l 347 0 m 174 174 l 347 174 l 347 347 l 174 347 l 174 174 m 521 174 l 694 174 l 694 347 l 521 347 l 521 174 m 0 347 l 174 347 l 174 1215 l 0 1215 l 0 347 m 694 347 l 868 347 l 868 1215 l 694 1215 l 694 347 "},"w":{"ha":1389,"x_min":0,"x_max":1215,"o":"m 174 0 l 521 0 l 521 174 l 174 174 l 174 0 m 694 0 l 1042 0 l 1042 174 l 694 174 l 694 0 m 0 174 l 174 174 l 174 1215 l 0 1215 l 0 174 m 521 174 l 694 174 l 694 1215 l 521 1215 l 521 174 m 1042 174 l 1215 174 l 1215 1215 l 1042 1215 l 1042 174 "},"x":{"ha":1042,"x_min":0,"x_max":868,"o":"m 0 0 l 174 0 l 174 521 l 0 521 l 0 0 m 694 0 l 868 0 l 868 521 l 694 521 l 694 0 m 174 521 l 694 521 l 694 694 l 174 694 l 174 521 m 0 694 l 174 694 l 174 1215 l 0 1215 l 0 694 m 694 694 l 868 694 l 868 1215 l 694 1215 l 694 694 "},"y":{"ha":1042,"x_min":0,"x_max":868,"o":"m 347 0 l 521 0 l 521 521 l 694 521 l 694 694 l 174 694 l 174 521 l 347 521 l 347 0 m 0 694 l 174 694 l 174 1215 l 0 1215 l 0 694 m 694 694 l 868 694 l 868 1215 l 694 1215 l 694 694 "},"z":{"ha":1042,"x_min":0,"x_max":868,"o":"m 0 0 l 868 0 l 868 174 l 174 174 l 174 347 l 0 347 l 0 0 m 174 347 l 347 347 l 347 521 l 174 521 l 174 347 m 347 521 l 521 521 l 521 694 l 347 694 l 347 521 m 521 694 l 694 694 l 694 868 l 521 868 l 521 694 m 694 868 l 868 868 l 868 1215 l 0 1215 l 0 1042 l 694 1042 l 694 868 "},"{":{"ha":694,"x_min":0,"x_max":521,"o":"m 347 0 l 521 0 l 521 174 l 347 174 l 347 0 m 174 174 l 347 174 l 347 521 l 174 521 l 174 174 m 0 521 l 174 521 l 174 694 l 0 694 l 0 521 m 174 694 l 347 694 l 347 1042 l 174 1042 l 174 694 m 347 1042 l 521 1042 l 521 1215 l 347 1215 l 347 1042 "},"|":{"ha":347,"x_min":0,"x_max":174,"o":"m 0 0 l 174 0 l 174 1215 l 0 1215 l 0 0 "},"}":{"ha":694,"x_min":0,"x_max":521,"o":"m 0 0 l 174 0 l 174 174 l 0 174 l 0 0 m 174 174 l 347 174 l 347 521 l 174 521 l 174 174 m 347 521 l 521 521 l 521 694 l 347 694 l 347 521 m 174 694 l 347 694 l 347 1042 l 174 1042 l 174 694 m 0 1042 l 174 1042 l 174 1215 l 0 1215 l 0 1042 "},"~":{"ha":1215,"x_min":0,"x_max":1042,"o":"m 0 521 l 174 521 l 174 694 l 0 694 l 0 521 m 521 521 l 868 521 l 868 694 l 521 694 l 521 521 m 174 694 l 521 694 l 521 868 l 174 868 l 174 694 m 868 694 l 1042 694 l 1042 868 l 868 868 l 868 694 "},"·":{"ha":347,"x_min":0,"x_max":174,"o":"m 0 521 l 174 521 l 174 694 l 0 694 l 0 521 "},"¸":{"ha":521,"x_min":0,"x_max":347,"o":"m 0 -347 l 347 -347 l 347 0 l 174 0 l 174 -174 l 0 -174 l 0 -347 m 0 0 l 174 0 l 174 174 l 0 174 l 0 0 "},"À":{"ha":1042,"x_min":0,"x_max":868,"o":"m 0 0 l 174 0 l 174 521 l 694 521 l 694 0 l 868 0 l 868 1042 l 694 1042 l 694 694 l 174 694 l 174 1042 l 0 1042 l 0 0 m 174 1042 l 694 1042 l 694 1215 l 174 1215 l 174 1042 m 0 1389 l 347 1389 l 347 1563 l 0 1563 l 0 1389 "},"Á":{"ha":1042,"x_min":0,"x_max":868,"o":"m 0 0 l 174 0 l 174 521 l 694 521 l 694 0 l 868 0 l 868 1042 l 694 1042 l 694 694 l 174 694 l 174 1042 l 0 1042 l 0 0 m 174 1042 l 694 1042 l 694 1215 l 174 1215 l 174 1042 m 521 1389 l 868 1389 l 868 1563 l 521 1563 l 521 1389 "},"Â":{"ha":1042,"x_min":0,"x_max":868,"o":"m 0 0 l 174 0 l 174 521 l 694 521 l 694 0 l 868 0 l 868 1042 l 694 1042 l 694 694 l 174 694 l 174 1042 l 0 1042 l 0 0 m 174 1042 l 694 1042 l 694 1215 l 174 1215 l 174 1042 m 0 1215 l 174 1215 l 174 1389 l 0 1389 l 0 1215 m 694 1215 l 868 1215 l 868 1389 l 694 1389 l 694 1215 m 174 1389 l 694 1389 l 694 1563 l 174 1563 l 174 1389 "},"Ã":{"ha":1042,"x_min":0,"x_max":868,"o":"m 0 0 l 174 0 l 174 521 l 694 521 l 694 0 l 868 0 l 868 1042 l 694 1042 l 694 694 l 174 694 l 174 1042 l 0 1042 l 0 0 m 0 1215 l 174 1215 l 174 1389 l 0 1389 l 0 1215 m 174 1042 l 694 1042 l 694 1389 l 521 1389 l 521 1215 l 174 1215 l 174 1042 m 174 1389 l 521 1389 l 521 1563 l 174 1563 l 174 1389 m 694 1389 l 868 1389 l 868 1563 l 694 1563 l 694 1389 "},"Ä":{"ha":1042,"x_min":0,"x_max":868,"o":"m 0 0 l 174 0 l 174 521 l 694 521 l 694 0 l 868 0 l 868 1042 l 694 1042 l 694 694 l 174 694 l 174 1042 l 0 1042 l 0 0 m 174 1042 l 694 1042 l 694 1215 l 174 1215 l 174 1042 m 0 1389 l 174 1389 l 174 1563 l 0 1563 l 0 1389 m 694 1389 l 868 1389 l 868 1563 l 694 1563 l 694 1389 "},"Å":{"ha":1042,"x_min":0,"x_max":868,"o":"m 0 0 l 174 0 l 174 521 l 694 521 l 694 0 l 868 0 l 868 1042 l 694 1042 l 694 694 l 174 694 l 174 1042 l 0 1042 l 0 0 m 174 1042 l 694 1042 l 694 1215 l 174 1215 l 174 1042 m 347 1389 l 521 1389 l 521 1563 l 347 1563 l 347 1389 "},"Æ":{"ha":1563,"x_min":0,"x_max":1389,"o":"m 0 0 l 174 0 l 174 521 l 694 521 l 694 0 l 1389 0 l 1389 174 l 868 174 l 868 521 l 1389 521 l 1389 694 l 868 694 l 868 1042 l 1389 1042 l 1389 1215 l 174 1215 l 174 1042 l 694 1042 l 694 694 l 174 694 l 174 1042 l 0 1042 l 0 0 "},"Ç":{"ha":1042,"x_min":0,"x_max":868,"o":"m 347 -521 l 521 -521 l 521 -347 l 347 -347 l 347 -521 m 521 -347 l 694 -347 l 694 -174 l 521 -174 l 521 -347 m 347 -174 l 521 -174 l 521 0 l 868 0 l 868 174 l 174 174 l 174 0 l 347 0 l 347 -174 m 0 174 l 174 174 l 174 1042 l 0 1042 l 0 174 m 174 1042 l 868 1042 l 868 1215 l 174 1215 l 174 1042 "},"È":{"ha":1042,"x_min":0,"x_max":868,"o":"m 174 0 l 868 0 l 868 174 l 174 174 l 174 0 m 0 174 l 174 174 l 174 521 l 868 521 l 868 694 l 174 694 l 174 1042 l 0 1042 l 0 174 m 174 1042 l 868 1042 l 868 1215 l 174 1215 l 174 1042 m 0 1389 l 347 1389 l 347 1563 l 0 1563 l 0 1389 "},"É":{"ha":1042,"x_min":0,"x_max":868,"o":"m 174 0 l 868 0 l 868 174 l 174 174 l 174 0 m 0 174 l 174 174 l 174 521 l 868 521 l 868 694 l 174 694 l 174 1042 l 0 1042 l 0 174 m 174 1042 l 868 1042 l 868 1215 l 174 1215 l 174 1042 m 521 1389 l 868 1389 l 868 1563 l 521 1563 l 521 1389 "},"Ê":{"ha":1042,"x_min":0,"x_max":868,"o":"m 174 0 l 868 0 l 868 174 l 174 174 l 174 0 m 0 174 l 174 174 l 174 521 l 868 521 l 868 694 l 174 694 l 174 1042 l 0 1042 l 0 174 m 0 1215 l 174 1215 l 174 1389 l 0 1389 l 0 1215 m 174 1042 l 868 1042 l 868 1389 l 694 1389 l 694 1215 l 174 1215 l 174 1042 m 174 1389 l 694 1389 l 694 1563 l 174 1563 l 174 1389 "},"Ë":{"ha":1042,"x_min":0,"x_max":868,"o":"m 174 0 l 868 0 l 868 174 l 174 174 l 174 0 m 0 174 l 174 174 l 174 521 l 868 521 l 868 694 l 174 694 l 174 1042 l 0 1042 l 0 174 m 174 1042 l 868 1042 l 868 1215 l 174 1215 l 174 1042 m 0 1389 l 174 1389 l 174 1563 l 0 1563 l 0 1389 m 694 1389 l 868 1389 l 868 1563 l 694 1563 l 694 1389 "},"Ì":{"ha":694,"x_min":0,"x_max":521,"o":"m 0 0 l 521 0 l 521 174 l 347 174 l 347 1042 l 521 1042 l 521 1215 l 0 1215 l 0 1042 l 174 1042 l 174 174 l 0 174 l 0 0 m 0 1389 l 347 1389 l 347 1563 l 0 1563 l 0 1389 "},"Í":{"ha":694,"x_min":0,"x_max":521,"o":"m 0 0 l 521 0 l 521 174 l 347 174 l 347 1042 l 521 1042 l 521 1215 l 0 1215 l 0 1042 l 174 1042 l 174 174 l 0 174 l 0 0 m 174 1389 l 521 1389 l 521 1563 l 174 1563 l 174 1389 "},"Î":{"ha":694,"x_min":0,"x_max":521,"o":"m 0 0 l 521 0 l 521 174 l 347 174 l 347 1042 l 521 1042 l 521 1389 l 347 1389 l 347 1215 l 174 1215 l 174 1389 l 0 1389 l 0 1042 l 174 1042 l 174 174 l 0 174 l 0 0 m 174 1389 l 347 1389 l 347 1563 l 174 1563 l 174 1389 "},"Ï":{"ha":694,"x_min":0,"x_max":521,"o":"m 0 0 l 521 0 l 521 174 l 347 174 l 347 1042 l 521 1042 l 521 1215 l 0 1215 l 0 1042 l 174 1042 l 174 174 l 0 174 l 0 0 m 0 1389 l 174 1389 l 174 1563 l 0 1563 l 0 1389 m 347 1389 l 521 1389 l 521 1563 l 347 1563 l 347 1389 "},"Ð":{"ha":1042,"x_min":-174,"x_max":868,"o":"m 694 174 l 868 174 l 868 1042 l 694 1042 l 694 174 m 0 0 l 694 0 l 694 174 l 174 174 l 174 521 l 521 521 l 521 694 l 174 694 l 174 1042 l 694 1042 l 694 1215 l 0 1215 l 0 694 l -174 694 l -174 521 l 0 521 l 0 0 "},"Ñ":{"ha":1042,"x_min":0,"x_max":868,"o":"m 0 0 l 174 0 l 174 1042 l 0 1042 l 0 0 m 694 0 l 868 0 l 868 1042 l 694 1042 l 694 0 m 0 1215 l 174 1215 l 174 1389 l 0 1389 l 0 1215 m 174 1042 l 694 1042 l 694 1389 l 521 1389 l 521 1215 l 174 1215 l 174 1042 m 174 1389 l 521 1389 l 521 1563 l 174 1563 l 174 1389 m 694 1389 l 868 1389 l 868 1563 l 694 1563 l 694 1389 "},"Ò":{"ha":1042,"x_min":0,"x_max":868,"o":"m 174 0 l 694 0 l 694 174 l 174 174 l 174 0 m 0 174 l 174 174 l 174 1042 l 0 1042 l 0 174 m 694 174 l 868 174 l 868 1042 l 694 1042 l 694 174 m 174 1042 l 694 1042 l 694 1215 l 174 1215 l 174 1042 m 0 1389 l 347 1389 l 347 1563 l 0 1563 l 0 1389 "},"Ó":{"ha":1042,"x_min":0,"x_max":868,"o":"m 174 0 l 694 0 l 694 174 l 174 174 l 174 0 m 0 174 l 174 174 l 174 1042 l 0 1042 l 0 174 m 694 174 l 868 174 l 868 1042 l 694 1042 l 694 174 m 174 1042 l 694 1042 l 694 1215 l 174 1215 l 174 1042 m 521 1389 l 868 1389 l 868 1563 l 521 1563 l 521 1389 "},"Ô":{"ha":1042,"x_min":0,"x_max":868,"o":"m 174 0 l 694 0 l 694 174 l 174 174 l 174 0 m 0 174 l 174 174 l 174 1042 l 0 1042 l 0 174 m 694 174 l 868 174 l 868 1042 l 694 1042 l 694 174 m 174 1042 l 694 1042 l 694 1215 l 174 1215 l 174 1042 m 0 1215 l 174 1215 l 174 1389 l 0 1389 l 0 1215 m 694 1215 l 868 1215 l 868 1389 l 694 1389 l 694 1215 m 174 1389 l 694 1389 l 694 1563 l 174 1563 l 174 1389 "},"Õ":{"ha":1042,"x_min":0,"x_max":868,"o":"m 174 0 l 694 0 l 694 174 l 174 174 l 174 0 m 0 174 l 174 174 l 174 1042 l 0 1042 l 0 174 m 694 174 l 868 174 l 868 1042 l 694 1042 l 694 174 m 0 1215 l 174 1215 l 174 1389 l 0 1389 l 0 1215 m 174 1042 l 694 1042 l 694 1389 l 521 1389 l 521 1215 l 174 1215 l 174 1042 m 174 1389 l 521 1389 l 521 1563 l 174 1563 l 174 1389 m 694 1389 l 868 1389 l 868 1563 l 694 1563 l 694 1389 "},"Ö":{"ha":1042,"x_min":0,"x_max":868,"o":"m 174 0 l 694 0 l 694 174 l 174 174 l 174 0 m 0 174 l 174 174 l 174 1042 l 0 1042 l 0 174 m 694 174 l 868 174 l 868 1042 l 694 1042 l 694 174 m 174 1042 l 694 1042 l 694 1215 l 174 1215 l 174 1042 m 0 1389 l 174 1389 l 174 1563 l 0 1563 l 0 1389 m 694 1389 l 868 1389 l 868 1563 l 694 1563 l 694 1389 "},"×":{"ha":1042,"x_min":0,"x_max":868,"o":"m 0 174 l 174 174 l 174 347 l 0 347 l 0 174 m 694 174 l 868 174 l 868 347 l 694 347 l 694 174 m 174 347 l 347 347 l 347 521 l 174 521 l 174 347 m 521 347 l 694 347 l 694 521 l 521 521 l 521 347 m 347 521 l 521 521 l 521 694 l 347 694 l 347 521 m 174 694 l 347 694 l 347 868 l 174 868 l 174 694 m 521 694 l 694 694 l 694 868 l 521 868 l 521 694 m 0 868 l 174 868 l 174 1042 l 0 1042 l 0 868 m 694 868 l 868 868 l 868 1042 l 694 1042 l 694 868 "},"Ø":{"ha":1042,"x_min":0,"x_max":868,"o":"m 347 347 l 521 347 l 521 868 l 347 868 l 347 347 m 174 0 l 694 0 l 694 174 l 347 174 l 347 347 l 174 347 l 174 1042 l 0 1042 l 0 174 l 174 174 l 174 0 m 694 174 l 868 174 l 868 1042 l 694 1042 l 694 1215 l 174 1215 l 174 1042 l 521 1042 l 521 868 l 694 868 l 694 174 "},"Ù":{"ha":1042,"x_min":0,"x_max":868,"o":"m 174 0 l 694 0 l 694 174 l 174 174 l 174 0 m 0 174 l 174 174 l 174 1215 l 0 1215 l 0 174 m 694 174 l 868 174 l 868 1215 l 694 1215 l 694 174 m 0 1389 l 347 1389 l 347 1563 l 0 1563 l 0 1389 "},"Ú":{"ha":1042,"x_min":0,"x_max":868,"o":"m 174 0 l 694 0 l 694 174 l 174 174 l 174 0 m 0 174 l 174 174 l 174 1215 l 0 1215 l 0 174 m 694 174 l 868 174 l 868 1215 l 694 1215 l 694 174 m 521 1389 l 868 1389 l 868 1563 l 521 1563 l 521 1389 "},"Û":{"ha":1042,"x_min":0,"x_max":868,"o":"m 174 0 l 694 0 l 694 174 l 174 174 l 174 0 m 0 174 l 174 174 l 174 1042 l 0 1042 l 0 174 m 694 174 l 868 174 l 868 1042 l 694 1042 l 694 174 m 0 1215 l 174 1215 l 174 1389 l 0 1389 l 0 1215 m 694 1215 l 868 1215 l 868 1389 l 694 1389 l 694 1215 m 174 1389 l 694 1389 l 694 1563 l 174 1563 l 174 1389 "},"Ü":{"ha":1042,"x_min":0,"x_max":868,"o":"m 174 0 l 694 0 l 694 174 l 174 174 l 174 0 m 0 174 l 174 174 l 174 1042 l 0 1042 l 0 174 m 694 174 l 868 174 l 868 1042 l 694 1042 l 694 174 m 0 1215 l 174 1215 l 174 1389 l 0 1389 l 0 1215 m 694 1215 l 868 1215 l 868 1389 l 694 1389 l 694 1215 "},"ẞ":{"ha":1042,"x_min":0,"x_max":868,"o":"m 347 0 l 694 0 l 694 174 l 347 174 l 347 0 m 694 174 l 868 174 l 868 521 l 694 521 l 694 174 m 347 521 l 694 521 l 694 694 l 347 694 l 347 521 m 694 694 l 868 694 l 868 1042 l 694 1042 l 694 694 m 0 0 l 174 0 l 174 1042 l 694 1042 l 694 1215 l 0 1215 l 0 0 "},"—":{"ha":1215,"x_min":0,"x_max":1042,"o":"m 0 521 l 1042 521 l 1042 694 l 0 694 l 0 521 "},"‘":{"ha":347,"x_min":0,"x_max":174,"o":"m 0 868 l 174 868 l 174 1215 l 0 1215 l 0 868 "},"’":{"ha":347,"x_min":0,"x_max":174,"o":"m 0 868 l 174 868 l 174 1215 l 0 1215 l 0 868 "},"“":{"ha":694,"x_min":0,"x_max":521,"o":"m 0 868 l 174 868 l 174 1215 l 0 1215 l 0 868 m 347 868 l 521 868 l 521 1215 l 347 1215 l 347 868 "},"”":{"ha":694,"x_min":0,"x_max":521,"o":"m 0 868 l 174 868 l 174 1215 l 0 1215 l 0 868 m 347 868 l 521 868 l 521 1215 l 347 1215 l 347 868 "},"…":{"ha":1042,"x_min":0,"x_max":868,"o":"m 0 0 l 174 0 l 174 174 l 0 174 l 0 0 m 347 0 l 521 0 l 521 174 l 347 174 l 347 0 m 694 0 l 868 0 l 868 174 l 694 174 l 694 0 "},"‹":{"ha":694,"x_min":0,"x_max":521,"o":"m 347 174 l 521 174 l 521 347 l 347 347 l 347 174 m 174 347 l 347 347 l 347 521 l 174 521 l 174 347 m 0 521 l 174 521 l 174 694 l 0 694 l 0 521 m 174 694 l 347 694 l 347 868 l 174 868 l 174 694 m 347 868 l 521 868 l 521 1042 l 347 1042 l 347 868 "},"›":{"ha":694,"x_min":0,"x_max":521,"o":"m 0 174 l 174 174 l 174 347 l 0 347 l 0 174 m 174 347 l 347 347 l 347 521 l 174 521 l 174 347 m 347 521 l 521 521 l 521 694 l 347 694 l 347 521 m 174 694 l 347 694 l 347 868 l 174 868 l 174 694 m 0 868 l 174 868 l 174 1042 l 0 1042 l 0 868 "}}}
